<mxfile host="app.diagrams.net" modified="2023-01-29T17:25:50.499Z" agent="5.0 (Macintosh; Intel Mac OS X 10_15_7) AppleWebKit/537.36 (KHTML, like Gecko) Chrome/109.0.0.0 Safari/537.36" etag="_oeTK1t6CY2Zi2WQcmsY" version="20.8.13" type="github">
  <diagram id="C5RBs43oDa-KdzZeNtuy" name="Page-1">
    <mxGraphModel dx="1306" dy="726" grid="1" gridSize="10" guides="1" tooltips="1" connect="1" arrows="1" fold="1" page="1" pageScale="1" pageWidth="827" pageHeight="1169" math="0" shadow="0">
      <root>
        <mxCell id="WIyWlLk6GJQsqaUBKTNV-0" />
        <mxCell id="WIyWlLk6GJQsqaUBKTNV-1" parent="WIyWlLk6GJQsqaUBKTNV-0" />
        <mxCell id="8ZYj_ryop38k5bYqxM0Q-2" style="edgeStyle=orthogonalEdgeStyle;rounded=0;orthogonalLoop=1;jettySize=auto;html=1;exitX=1;exitY=0.5;exitDx=0;exitDy=0;entryX=0;entryY=0.5;entryDx=0;entryDy=0;" edge="1" parent="WIyWlLk6GJQsqaUBKTNV-1" source="8ZYj_ryop38k5bYqxM0Q-0" target="8ZYj_ryop38k5bYqxM0Q-1">
          <mxGeometry relative="1" as="geometry" />
        </mxCell>
        <mxCell id="8ZYj_ryop38k5bYqxM0Q-0" value="Shell App" style="ellipse;whiteSpace=wrap;html=1;" vertex="1" parent="WIyWlLk6GJQsqaUBKTNV-1">
          <mxGeometry x="70" y="70" width="120" height="60" as="geometry" />
        </mxCell>
        <mxCell id="8ZYj_ryop38k5bYqxM0Q-4" value="NO" style="edgeStyle=orthogonalEdgeStyle;rounded=0;orthogonalLoop=1;jettySize=auto;html=1;exitX=1;exitY=0.5;exitDx=0;exitDy=0;entryX=0;entryY=0.5;entryDx=0;entryDy=0;" edge="1" parent="WIyWlLk6GJQsqaUBKTNV-1" source="8ZYj_ryop38k5bYqxM0Q-1" target="8ZYj_ryop38k5bYqxM0Q-3">
          <mxGeometry relative="1" as="geometry" />
        </mxCell>
        <mxCell id="8ZYj_ryop38k5bYqxM0Q-1" value="Have Samsung Seller Office Account?" style="rhombus;whiteSpace=wrap;html=1;" vertex="1" parent="WIyWlLk6GJQsqaUBKTNV-1">
          <mxGeometry x="250" y="45" width="140" height="110" as="geometry" />
        </mxCell>
        <mxCell id="8ZYj_ryop38k5bYqxM0Q-3" value="&lt;a href=&quot;https://developer.samsung.com/signage/distribute/seller-office/membership/becoming-seller-office-member.html&quot;&gt;Create Samsung Seller Office Account&lt;/a&gt;" style="rounded=0;whiteSpace=wrap;html=1;" vertex="1" parent="WIyWlLk6GJQsqaUBKTNV-1">
          <mxGeometry x="490" y="70" width="120" height="60" as="geometry" />
        </mxCell>
        <mxCell id="8ZYj_ryop38k5bYqxM0Q-7" value="" style="endArrow=classic;html=1;rounded=0;exitX=0.5;exitY=0;exitDx=0;exitDy=0;entryX=0.5;entryY=0;entryDx=0;entryDy=0;" edge="1" parent="WIyWlLk6GJQsqaUBKTNV-1" source="8ZYj_ryop38k5bYqxM0Q-3" target="8ZYj_ryop38k5bYqxM0Q-0">
          <mxGeometry width="50" height="50" relative="1" as="geometry">
            <mxPoint x="390" y="320" as="sourcePoint" />
            <mxPoint x="230" y="250" as="targetPoint" />
            <Array as="points">
              <mxPoint x="550" y="20" />
              <mxPoint x="400" y="20" />
              <mxPoint x="130" y="20" />
            </Array>
          </mxGeometry>
        </mxCell>
      </root>
    </mxGraphModel>
  </diagram>
</mxfile>
